<?xml version="1.0" encoding="UTF-8"?>
<svg version="1.1" xmlns="http://www.w3.org/2000/svg" width="200" height="200">
<path d="M0 0 C66 0 132 0 200 0 C200 66 200 132 200 200 C134 200 68 200 0 200 C0 134 0 68 0 0 Z " fill="#B8B8B8" transform="translate(0,0)"/>
<path d="M0 0 C2.15257196 2.37222216 3.89366806 4.81275361 5.6640625 7.484375 C6.97518149 9.35506176 8.29895973 11.2162452 9.62597656 13.07568359 C10.51509395 14.33221283 11.39119291 15.59807242 12.25292969 16.87353516 C14.7250322 20.57736642 14.7250322 20.57736642 18.6640625 22.484375 C24.38681617 19.25560729 27.81536064 13.69033037 31.0390625 8.171875 C35.6429982 0.5054393 35.6429982 0.5054393 36.6640625 -0.515625 C50.0722806 -1.58338127 61.05326035 0.78507765 71.6640625 9.484375 C79.95136834 17.00997994 86.45324045 28.18336917 87.6640625 39.484375 C87.80469251 43.82381518 87.78313742 48.1447556 87.6640625 52.484375 C81.80848259 55.47171153 76.89871638 56.01640038 70.375 56.1640625 C69.31066742 56.19708466 68.24633484 56.23010681 67.14974976 56.26412964 C50.14569087 56.71978384 33.1270146 56.63189335 16.11846924 56.61132812 C12.35614774 56.60873101 8.5938499 56.61357942 4.83153152 56.61819839 C-15.58080713 56.63930376 -35.94416327 56.50066586 -56.3359375 55.484375 C-57.02403463 40.15711212 -54.27217894 25.24297377 -44.7109375 12.796875 C-35.68340421 2.95500236 -12.78637228 -8.29617466 0 0 Z " fill="#FEFEFE" transform="translate(81.3359375,119.515625)"/>
<path d="M0 0 C5.86489432 4.12497567 10.63221127 8.74112119 12 16 C12.81302424 34.18905392 10.08425197 52.50541205 -2 67 C-7.89688053 72.36080048 -12.4054791 72.34863488 -20.1640625 72.20703125 C-28.14399086 71.77634265 -33.48580604 69.46456309 -39.28125 63.93359375 C-42.02645003 60.84524371 -43.63310799 57.88936904 -45 54 C-45.44666016 52.75283203 -45.44666016 52.75283203 -45.90234375 51.48046875 C-49.47182618 39.1928956 -51.43740665 20.97542014 -45.4375 9.3125 C-43.76953125 6.95703125 -43.76953125 6.95703125 -42 5 C-41.17048828 4.07767578 -41.17048828 4.07767578 -40.32421875 3.13671875 C-29.96427125 -6.84217321 -12.14317967 -6.74183027 0 0 Z " fill="#FEFEFE" transform="translate(116,41)"/>
</svg>
