<svg width="58" height="40" viewBox="0 0 58 40" fill="none" xmlns="http://www.w3.org/2000/svg">
<g clip-path="url(#clip0_8_12852)">
<path d="M20 40C31.0457 40 40 31.0457 40 20C40 8.9543 31.0457 0 20 0C8.9543 0 0 8.9543 0 20C0 31.0457 8.9543 40 20 40Z" fill="#2E3148"/>
<path d="M20 31.6045C26.4092 31.6045 31.6049 26.4087 31.6049 19.9995C31.6049 13.5902 26.4092 8.39453 20 8.39453C13.5907 8.39453 8.39502 13.5902 8.39502 19.9995C8.39502 26.4087 13.5907 31.6045 20 31.6045Z" fill="#1B1E36"/>
<path d="M20.0412 2.55078C17.8823 2.55078 16.1317 10.3812 16.1317 20.0405C16.1317 29.6999 17.8823 37.5303 20.0412 37.5303C22.2 37.5303 23.9506 29.6999 23.9506 20.0405C23.9506 10.3812 22.2 2.55078 20.0412 2.55078ZM20.3111 36.5433C20.0642 36.8725 19.8173 36.6255 19.8173 36.6255C18.8231 35.4735 18.326 33.3333 18.326 33.3333C16.5869 27.7367 17.0008 15.7202 17.0008 15.7202C17.8181 6.18038 19.3048 3.92678 19.8108 3.42646C19.8624 3.3754 19.9304 3.34419 20.0028 3.33834C20.0753 3.33249 20.1474 3.35236 20.2066 3.39446C20.9407 3.91462 21.5564 6.08998 21.5564 6.08998C23.3744 12.8389 23.2098 19.1764 23.2098 19.1764C23.3744 24.6908 22.2988 30.8636 22.2988 30.8636C21.4708 35.5548 20.3111 36.5433 20.3111 36.5433Z" fill="#6F7390"/>
<path d="M35.2115 11.3353C34.1367 9.46206 26.4741 11.8406 18.0915 16.6473C9.70899 21.4541 3.79603 26.8696 4.87011 28.7421C5.94419 30.6145 13.6075 28.2368 21.9901 23.4301C30.3727 18.6233 36.2856 13.2078 35.2115 11.3353ZM5.86179 28.4851C5.45027 28.4333 5.54323 28.095 5.54323 28.095C6.04803 26.6597 7.65443 25.1633 7.65443 25.1633C11.6453 20.8696 22.2751 15.2489 22.2751 15.2489C30.9557 11.2102 33.652 11.3806 34.336 11.5689C34.4062 11.5885 34.4672 11.6323 34.5082 11.6926C34.5492 11.7529 34.5676 11.8257 34.56 11.8982C34.4778 12.7942 32.8933 14.4102 32.8933 14.4102C27.9474 19.3477 22.368 22.3592 22.368 22.3592C17.6667 25.2472 11.7771 27.3846 11.7771 27.3846C7.29571 28.9995 5.86195 28.4851 5.86195 28.4851H5.86179Z" fill="#6F7390"/>
<path d="M35.1738 28.8061C36.257 26.9378 30.3589 21.4975 22.0058 16.6546C13.6527 11.8117 5.99105 9.40374 4.90881 11.2753C3.82657 13.1468 9.72369 18.5839 18.0816 23.4268C26.4395 28.2697 34.0915 30.6778 35.1738 28.8061ZM5.62657 11.9972C5.46657 11.6178 5.80433 11.5265 5.80433 11.5265C7.29969 11.2441 9.40017 11.8876 9.40017 11.8876C15.1146 13.1889 25.3042 19.5716 25.3042 19.5716C33.1495 25.0613 34.3526 27.4794 34.533 28.1658C34.5513 28.2362 34.5442 28.3108 34.5129 28.3765C34.4815 28.4422 34.428 28.4946 34.3618 28.5247C33.5437 28.8993 31.3526 28.3412 31.3526 28.3412C24.5995 26.5305 19.1987 23.2129 19.1987 23.2129C14.3461 20.5956 9.54769 16.5684 9.54769 16.5684C5.90161 13.4985 5.62769 12.0013 5.62769 12.0013L5.62657 11.9972Z" fill="#6F7390"/>
<path d="M20.0001 22.0566C21.1365 22.0566 22.0577 21.1354 22.0577 19.999C22.0577 18.8626 21.1365 17.9414 20.0001 17.9414C18.8637 17.9414 17.9425 18.8626 17.9425 19.999C17.9425 21.1354 18.8637 22.0566 20.0001 22.0566Z" fill="#B7B9C8"/>
<path d="M28.4362 13.3324C29.0954 13.3324 29.6297 12.7797 29.6297 12.0978C29.6297 11.416 29.0954 10.8633 28.4362 10.8633C27.7771 10.8633 27.2428 11.416 27.2428 12.0978C27.2428 12.7797 27.7771 13.3324 28.4362 13.3324Z" fill="#B7B9C8"/>
<path d="M8.84774 17.5316C9.50686 17.5316 10.0412 16.9789 10.0412 16.2971C10.0412 15.6152 9.50686 15.0625 8.84774 15.0625C8.18862 15.0625 7.6543 15.6152 7.6543 16.2971C7.6543 16.9789 8.18862 17.5316 8.84774 17.5316Z" fill="#B7B9C8"/>
<path d="M17.5719 32.6722C18.231 32.6722 18.7653 32.1195 18.7653 31.4377C18.7653 30.7559 18.231 30.2031 17.5719 30.2031C16.9127 30.2031 16.3784 30.7559 16.3784 31.4377C16.3784 32.1195 16.9127 32.6722 17.5719 32.6722Z" fill="#B7B9C8"/>
<path opacity="0.6" fill-rule="evenodd" clip-rule="evenodd" d="M11.7458 38.0859C4.82135 34.9666 0 28.0031 0 19.9224C0 8.92651 8.92726 -0.000766754 19.9229 -0.000766754C26.2795 -0.000766754 31.945 2.98269 35.5903 7.62913C36.7807 9.30724 37.577 12.8254 34.545 16.4024C32.8473 18.4047 28.9281 20.748 23.3664 23.2991C19.0521 25.2504 14.8037 27.5776 12.0872 30.3228C11.0714 31.3496 10.401 32.5049 10.0545 33.6043C9.54746 35.2134 10.0965 37.2799 11.7458 38.0859Z" fill="#FF984D"/>
</g>
<g clip-path="url(#clip1_8_12852)">
<path d="M38 40C49.0457 40 58 31.0457 58 20C58 8.9543 49.0457 0 38 0C26.9543 0 18 8.9543 18 20C18 31.0457 26.9543 40 38 40Z" fill="#2E3148"/>
<path d="M38 31.6045C44.4092 31.6045 49.6049 26.4087 49.6049 19.9995C49.6049 13.5902 44.4092 8.39453 38 8.39453C31.5907 8.39453 26.395 13.5902 26.395 19.9995C26.395 26.4087 31.5907 31.6045 38 31.6045Z" fill="#1B1E36"/>
<path d="M38.0412 2.55078C35.8823 2.55078 34.1317 10.3812 34.1317 20.0405C34.1317 29.6999 35.8823 37.5303 38.0412 37.5303C40.2 37.5303 41.9506 29.6999 41.9506 20.0405C41.9506 10.3812 40.2 2.55078 38.0412 2.55078ZM38.3111 36.5433C38.0642 36.8725 37.8173 36.6255 37.8173 36.6255C36.8231 35.4735 36.326 33.3333 36.326 33.3333C34.5869 27.7367 35.0008 15.7202 35.0008 15.7202C35.8181 6.18038 37.3048 3.92678 37.8108 3.42646C37.8624 3.3754 37.9304 3.34419 38.0028 3.33834C38.0753 3.33249 38.1474 3.35236 38.2066 3.39446C38.9407 3.91462 39.5564 6.08998 39.5564 6.08998C41.3744 12.8389 41.2098 19.1764 41.2098 19.1764C41.3744 24.6908 40.2988 30.8636 40.2988 30.8636C39.4708 35.5548 38.3111 36.5433 38.3111 36.5433Z" fill="#6F7390"/>
<path d="M53.2115 11.3353C52.1367 9.46206 44.4741 11.8406 36.0915 16.6473C27.709 21.4541 21.796 26.8696 22.8701 28.7421C23.9442 30.6145 31.6075 28.2368 39.9901 23.4301C48.3727 18.6233 54.2856 13.2078 53.2115 11.3353ZM23.8618 28.4851C23.4503 28.4333 23.5432 28.095 23.5432 28.095C24.048 26.6597 25.6544 25.1633 25.6544 25.1633C29.6453 20.8696 40.2751 15.2489 40.2751 15.2489C48.9557 11.2102 51.652 11.3806 52.336 11.5689C52.4062 11.5885 52.4672 11.6323 52.5082 11.6926C52.5492 11.7529 52.5676 11.8257 52.56 11.8982C52.4778 12.7942 50.8933 14.4102 50.8933 14.4102C45.9474 19.3477 40.368 22.3592 40.368 22.3592C35.6667 25.2472 29.7771 27.3846 29.7771 27.3846C25.2957 28.9995 23.8619 28.4851 23.8619 28.4851H23.8618Z" fill="#6F7390"/>
<path d="M53.1738 28.8061C54.257 26.9378 48.3589 21.4975 40.0058 16.6546C31.6527 11.8117 23.9911 9.40374 22.9088 11.2753C21.8266 13.1468 27.7237 18.5839 36.0816 23.4268C44.4395 28.2697 52.0915 30.6778 53.1738 28.8061ZM23.6266 11.9972C23.4666 11.6178 23.8043 11.5265 23.8043 11.5265C25.2997 11.2441 27.4002 11.8876 27.4002 11.8876C33.1146 13.1889 43.3042 19.5716 43.3042 19.5716C51.1495 25.0613 52.3526 27.4794 52.533 28.1658C52.5513 28.2362 52.5442 28.3108 52.5129 28.3765C52.4815 28.4422 52.428 28.4946 52.3618 28.5247C51.5437 28.8993 49.3526 28.3412 49.3526 28.3412C42.5995 26.5305 37.1987 23.2129 37.1987 23.2129C32.3461 20.5956 27.5477 16.5684 27.5477 16.5684C23.9016 13.4985 23.6277 12.0013 23.6277 12.0013L23.6266 11.9972Z" fill="#6F7390"/>
<path d="M38.0001 22.0566C39.1365 22.0566 40.0577 21.1354 40.0577 19.999C40.0577 18.8626 39.1365 17.9414 38.0001 17.9414C36.8637 17.9414 35.9425 18.8626 35.9425 19.999C35.9425 21.1354 36.8637 22.0566 38.0001 22.0566Z" fill="#B7B9C8"/>
<path d="M46.4362 13.3324C47.0954 13.3324 47.6297 12.7797 47.6297 12.0978C47.6297 11.416 47.0954 10.8633 46.4362 10.8633C45.7771 10.8633 45.2428 11.416 45.2428 12.0978C45.2428 12.7797 45.7771 13.3324 46.4362 13.3324Z" fill="#B7B9C8"/>
<path d="M26.8477 17.5316C27.5069 17.5316 28.0412 16.9789 28.0412 16.2971C28.0412 15.6152 27.5069 15.0625 26.8477 15.0625C26.1886 15.0625 25.6543 15.6152 25.6543 16.2971C25.6543 16.9789 26.1886 17.5316 26.8477 17.5316Z" fill="#B7B9C8"/>
<path d="M35.5719 32.6722C36.231 32.6722 36.7653 32.1195 36.7653 31.4377C36.7653 30.7559 36.231 30.2031 35.5719 30.2031C34.9127 30.2031 34.3784 30.7559 34.3784 31.4377C34.3784 32.1195 34.9127 32.6722 35.5719 32.6722Z" fill="#B7B9C8"/>
</g>
<defs>
<clipPath id="clip0_8_12852">
<rect width="40" height="40" fill="white"/>
</clipPath>
<clipPath id="clip1_8_12852">
<rect width="40" height="40" fill="white" transform="translate(18)"/>
</clipPath>
</defs>
</svg>
