<svg width="126" height="127" fill="none" xmlns="http://www.w3.org/2000/svg"><mask id="prefix__a" style="mask-type:alpha" maskUnits="userSpaceOnUse" x="0" y="0" width="126" height="127"><path d="M97.99.75H28.01C12.54.75 0 13.29 0 28.76v69.98c0 15.469 12.54 28.01 28.01 28.01h69.98c15.469 0 28.01-12.541 28.01-28.01V28.76C126 13.29 113.459.75 97.99.75z" fill="#fff"/></mask><g mask="url(#prefix__a)"><path d="M-.13 11.178C-.13 5.348 4.599.62 10.43.62h105.057c5.831 0 10.558 4.727 10.558 10.559v105.057c0 5.831-4.727 10.558-10.558 10.558H10.429c-5.831 0-10.558-4.727-10.558-10.558V11.178z" fill="#fff"/><path d="M0 .75h126.202v126.202H0V.75z" fill="url(#prefix__paint0_diamond_2_158)"/></g><g clip-path="url(#prefix__clip0_2_158)" fill="#000"><path d="M59.778 62.162L0 32.682v66.057c0 15.47 12.54 28.011 28.01 28.011h66.058L60.245 62.615a1.056 1.056 0 00-.467-.455v.002zM97.99.75H31.931l34.283 64.364c.104.196.267.352.465.45l59.321 29.254V28.761C126 13.29 113.459.75 97.989.75z"/></g><defs><radialGradient id="prefix__paint0_diamond_2_158" cx="0" cy="0" r="1" gradientUnits="userSpaceOnUse" gradientTransform="matrix(-75.72124 -75.72124 57.10609 -57.10609 63.101 63.851)"><stop offset=".141" stop-color="#FFFBD8"/><stop offset=".307" stop-color="#5FECDB" stop-opacity=".64"/><stop offset=".521" stop-color="#4FBAF7"/><stop offset=".792" stop-color="#A745F4"/></radialGradient><clipPath id="prefix__clip0_2_158"><path fill="#fff" transform="translate(0 .75)" d="M0 0h126v126H0z"/></clipPath></defs></svg>