<svg width="40" height="41" viewBox="0 0 40 41" fill="none" xmlns="http://www.w3.org/2000/svg">
<g clip-path="url(#clip0_8_12827)">
<path d="M20 40.5C31.0457 40.5 40 31.5457 40 20.5C40 9.4543 31.0457 0.5 20 0.5C8.9543 0.5 0 9.4543 0 20.5C0 31.5457 8.9543 40.5 20 40.5Z" fill="#2E3148"/>
<path d="M20 32.1045C26.4092 32.1045 31.6049 26.9087 31.6049 20.4995C31.6049 14.0902 26.4092 8.89453 20 8.89453C13.5907 8.89453 8.39502 14.0902 8.39502 20.4995C8.39502 26.9087 13.5907 32.1045 20 32.1045Z" fill="#1B1E36"/>
<path d="M20.0412 3.05078C17.8823 3.05078 16.1317 10.8812 16.1317 20.5405C16.1317 30.1999 17.8823 38.0303 20.0412 38.0303C22.2 38.0303 23.9506 30.1999 23.9506 20.5405C23.9506 10.8812 22.2 3.05078 20.0412 3.05078ZM20.3111 37.0433C20.0642 37.3725 19.8173 37.1255 19.8173 37.1255C18.8231 35.9735 18.326 33.8333 18.326 33.8333C16.5869 28.2367 17.0008 16.2202 17.0008 16.2202C17.8181 6.68038 19.3048 4.42678 19.8108 3.92646C19.8624 3.8754 19.9304 3.84419 20.0028 3.83834C20.0753 3.83249 20.1474 3.85236 20.2066 3.89446C20.9407 4.41462 21.5564 6.58998 21.5564 6.58998C23.3744 13.3389 23.2098 19.6764 23.2098 19.6764C23.3744 25.1908 22.2988 31.3636 22.2988 31.3636C21.4708 36.0548 20.3111 37.0433 20.3111 37.0433Z" fill="#6F7390"/>
<path d="M35.2115 11.8353C34.1367 9.96206 26.4741 12.3406 18.0915 17.1473C9.70899 21.9541 3.79603 27.3696 4.87011 29.2421C5.94419 31.1145 13.6075 28.7368 21.9901 23.9301C30.3727 19.1233 36.2856 13.7078 35.2115 11.8353ZM5.86179 28.9851C5.45027 28.9333 5.54323 28.595 5.54323 28.595C6.04803 27.1597 7.65443 25.6633 7.65443 25.6633C11.6453 21.3696 22.2751 15.7489 22.2751 15.7489C30.9557 11.7102 33.652 11.8806 34.336 12.0689C34.4062 12.0885 34.4672 12.1323 34.5082 12.1926C34.5492 12.2529 34.5676 12.3257 34.56 12.3982C34.4778 13.2942 32.8933 14.9102 32.8933 14.9102C27.9474 19.8477 22.368 22.8592 22.368 22.8592C17.6667 25.7472 11.7771 27.8846 11.7771 27.8846C7.29571 29.4995 5.86195 28.9851 5.86195 28.9851H5.86179Z" fill="#6F7390"/>
<path d="M35.1738 29.3061C36.257 27.4378 30.3589 21.9975 22.0058 17.1546C13.6527 12.3117 5.99105 9.90374 4.90881 11.7753C3.82657 13.6468 9.72369 19.0839 18.0816 23.9268C26.4395 28.7697 34.0915 31.1778 35.1738 29.3061ZM5.62657 12.4972C5.46657 12.1178 5.80433 12.0265 5.80433 12.0265C7.29969 11.7441 9.40017 12.3876 9.40017 12.3876C15.1146 13.6889 25.3042 20.0716 25.3042 20.0716C33.1495 25.5613 34.3526 27.9794 34.533 28.6658C34.5513 28.7362 34.5442 28.8108 34.5129 28.8765C34.4815 28.9422 34.428 28.9946 34.3618 29.0247C33.5437 29.3993 31.3526 28.8412 31.3526 28.8412C24.5995 27.0305 19.1987 23.7129 19.1987 23.7129C14.3461 21.0956 9.54769 17.0684 9.54769 17.0684C5.90161 13.9985 5.62769 12.5013 5.62769 12.5013L5.62657 12.4972Z" fill="#6F7390"/>
<path d="M20.0001 22.5566C21.1365 22.5566 22.0577 21.6354 22.0577 20.499C22.0577 19.3626 21.1365 18.4414 20.0001 18.4414C18.8637 18.4414 17.9425 19.3626 17.9425 20.499C17.9425 21.6354 18.8637 22.5566 20.0001 22.5566Z" fill="#B7B9C8"/>
<path d="M28.4362 13.8324C29.0954 13.8324 29.6297 13.2797 29.6297 12.5978C29.6297 11.916 29.0954 11.3633 28.4362 11.3633C27.7771 11.3633 27.2428 11.916 27.2428 12.5978C27.2428 13.2797 27.7771 13.8324 28.4362 13.8324Z" fill="#B7B9C8"/>
<path d="M8.84774 18.0316C9.50686 18.0316 10.0412 17.4789 10.0412 16.7971C10.0412 16.1152 9.50686 15.5625 8.84774 15.5625C8.18862 15.5625 7.6543 16.1152 7.6543 16.7971C7.6543 17.4789 8.18862 18.0316 8.84774 18.0316Z" fill="#B7B9C8"/>
<path d="M17.5719 33.1722C18.231 33.1722 18.7653 32.6195 18.7653 31.9377C18.7653 31.2559 18.231 30.7031 17.5719 30.7031C16.9127 30.7031 16.3784 31.2559 16.3784 31.9377C16.3784 32.6195 16.9127 33.1722 17.5719 33.1722Z" fill="#B7B9C8"/>
<path opacity="0.6" fill-rule="evenodd" clip-rule="evenodd" d="M11.7458 38.5859C4.82135 35.4666 0 28.5031 0 20.4224C0 9.42651 8.92726 0.499233 19.9229 0.499233C26.2795 0.499233 31.945 3.48269 35.5903 8.12913C36.7807 9.80724 37.577 13.3254 34.545 16.9024C32.8473 18.9047 28.9281 21.248 23.3664 23.7991C19.0521 25.7504 14.8037 28.0776 12.0872 30.8228C11.0714 31.8496 10.401 33.0049 10.0545 34.1043C9.54746 35.7134 10.0965 37.7799 11.7458 38.5859Z" fill="#FF984D"/>
</g>
<defs>
<clipPath id="clip0_8_12827">
<rect width="40" height="40" fill="white" transform="translate(0 0.5)"/>
</clipPath>
</defs>
</svg>
